<svg xmlns="http://www.w3.org/2000/svg" xmlns:xlink="http://www.w3.org/1999/xlink" width="1365.998" height="232.344" viewBox="0 0 1365.998 232.344"><defs><style>.a{fill:#738d79;}.b{fill:#799b81;}.c{fill:#708073;}.d{fill:url(#a);}.e{fill:#707070;}.f{fill:#6c6c6c;}.g{fill:#7fc8f2;opacity:0.28;}.h{fill:#82917f;}.i{fill:#1b8de5;opacity:0.25;}.j{fill:#6f7b76;}.k{fill:#758a82;}.l{fill:#8aaf93;}.m{fill:#6b9786;}.n{fill:#729e8d;}.o{fill:#7fb5a0;}.p{fill:#87bfa9;}.q,.r,.s,.t,.u,.v{fill:none;stroke-linecap:round;}.q{stroke:#477077;}.q,.s,.u{stroke-width:3px;}.r{stroke:#4f666a;}.s{stroke:#597c82;}.t{stroke:#52747a;}.u{stroke:#557277;}.v{stroke:#4f6a6e;}</style><linearGradient id="a" x1="0.51" y1="0.453" x2="0.509" y2="1.174" gradientUnits="objectBoundingBox"><stop offset="0" stop-color="#84847b"/><stop offset="1" stop-color="#707070"/></linearGradient></defs><g transform="translate(0 -267.677)"><g transform="translate(9 -268)"><path class="a" d="M123.455,88.127s-7.365-24.481-29.6-25.666S88.992,30.27,62.888,26.077,47.155-1,26.422.623,12.558,36.839,28.354,41.6,43.9,67.081,60.373,70.76s17.2,28.367,46.232,32.155,33.814,9.645,33.814,9.645Z" transform="matrix(0.391, 0.921, -0.921, 0.391, 144.466, 565.435)"/><path class="a" d="M112.731,76.006s-6.723-21.1-27.019-22.122S81.269,26.139,57.437,22.526,48.867,4.229,15.6.624,11.489,31.8,25.91,35.907s14.2,21.959,29.231,25.13,15.7,24.449,42.207,27.714,30.87,8.313,30.87,8.313Z" transform="matrix(0.545, 0.839, -0.839, 0.545, 86.095, 542.48)"/><path class="b" d="M96.87,69.185s-5.775-19.2-23.208-20.127S69.845,23.815,49.375,20.527,42.013,3.881,13.435.6,9.908,28.966,22.294,32.7,34.487,52.681,47.4,55.566,60.889,77.81,83.657,80.781s26.516,7.563,26.516,7.563Z" transform="matrix(0.469, 0.883, -0.883, 0.469, 113.98, 573.32)"/><path class="b" d="M96.87,60.638S91.095,43.824,73.662,43.01,69.845,20.9,49.375,18.023,42.013,3.444,13.435.571,9.908,25.414,22.294,28.685,34.487,46.183,47.4,48.71,60.889,68.192,83.657,70.794s26.516,6.624,26.516,6.624Z" transform="matrix(0.174, 0.985, -0.985, 0.174, 162.424, 601.899)"/><path class="b" d="M96.87,54.817s-5.775-15.19-23.208-15.925S69.845,18.919,49.375,16.317,42.013,3.146,13.435.55s-3.528,22.444,8.859,25.4S34.487,41.758,47.4,44.041s13.486,17.6,36.254,19.951,26.516,5.984,26.516,5.984Z" transform="translate(57.355 573.762) rotate(55)"/></g><g transform="matrix(0.985, -0.174, 0.174, 0.985, 245.005, 319.638)"><path class="c" d="M75.781,53c-8.2-6.385-9.242-3.151-20.376-13.984s-2.09-19.087-17.6-22.734S13,6.857,9,3.537s.012,15.245,9.526,18.577,9.308,1,19.151,3.828S44.5,45.593,61.692,49.207a48.856,48.856,0,0,1,26.5,15.348A83.331,83.331,0,0,0,75.781,53Z" transform="matrix(0.469, 0.883, -0.883, 0.469, 67.796, 9.594)"/><path class="c" d="M53.885,39.469c-5.485-4.826-6.048-2.011-13.5-10.2s-2.247-13.44-12.622-16.2S11.169,5.95,8.49,3.441,8.5,14.963,14.864,17.482s8.961.8,15.547,2.932S32.764,37.026,44.27,39.758s17.207,9.8,17.207,9.8A29.805,29.805,0,0,0,53.885,39.469Z" transform="translate(90.891 44.44) rotate(80)"/><path class="c" d="M76.846,38.208c-8.2-4.658-10.308-.99-21.442-8.893S43.925,12.508,28.418,9.847,13,5.852,9,3.43s.012,11.122,9.526,13.554,9.308.732,19.151,2.792S50.664,40.309,67.86,42.946s20.333,5,20.333,5S85.044,42.866,76.846,38.208Z" transform="matrix(0.602, 0.799, -0.799, 0.602, 39.261, 14.047)"/></g><g transform="translate(0 -268)"><path class="d" d="M2375-760.684h72.361l22.518,23.79,18.014,50.979L2504-678.326l19.923-34.778,18.014-6.8V-745.39l14.636-15.294,13.022-14.444,19.629-6.8,5.629-9.346,29.273-4.248,17.214,4.248,3.052,9.346,19.14,11.895v24.64l16.888,8.5,12.468,27.67H2714.2l-7.881-36.166,7.881-7.647,9.007-11.9,11.259-10.2,19.14-6.8,23.64,6.8,18.014,5.1,22.517-5.1,4.507,14.444,21.392-9.346h51.79l5.629,9.346,33.776,7.647,27.021-11.9,28.147,4.248,14.636,31.437,20.266,9.346,11.259-16.993h61.923l11.259,31.437h21.392l9.007-31.437,47.287-8.5,22.518-15.294,49.539,7.647,10.133,23.79,63.05,5.1,73.182-5.1,40.532,9.346,7.881,14.444,31.525,16.143,33.776-16.143,16.888-14.444,40.532,6.8s10.133,15.294,9.007,23.79,33.776,33.986,33.776,33.986,42.784.85,42.784-5.948v-62.874l52.916-36.535,19.14-4.248,6.755,4.248v131.695H2375Z" transform="translate(-2375 1397.01)"/><path class="e" d="M5590.816,1358.9l-25.522,26.043v25.578l-18.375,6.811-16.521,33.759,57.814-38.022Z" transform="translate(-5398 -733)"/><path class="e" d="M2952.864-440.228l15.607,31.268,12.174,63.026L2939.258-405H2959.4Z" transform="translate(-2621.014 1093)"/><path class="f" d="M3064.51-456.667l12.436,4.767,7.247-4.767,1.359-9.28Z" transform="translate(-2617 1093)"/><path class="e" d="M3276.956-432.9h9.175l-6.114.879-3.062,12.938-11.031,3.268Z" transform="translate(-2616 1093)"/><path class="e" d="M3363.531-401.416c1.2,0,14.4,3.565,14.4,3.565l5.208-33.655,45.675-4.808,6.57-9.955L3428-441.262l-47.148,8.416-9.093,31.43Z" transform="translate(-2616 1093)"/><path class="e" d="M3860.713-351.117l15.47,7.876,12.793-6.25h14.236s13.6,1.042,13.076,0-13.076-61.359-13.076-61.359.083,48.694,0,54.338S3860.713-351.117,3860.713-351.117Z" transform="translate(-2616 1093)"/><path class="g" d="M2375-760.684h72.361l22.518,23.79,18.014,50.979L2504-678.326l19.923-34.778,18.014-6.8V-745.39l14.636-15.294,13.022-14.444,19.629-6.8,5.629-9.346,29.273-4.248,17.214,4.248,3.052,9.346,19.14,11.895v24.64l16.888,8.5,12.468,27.67H2714.2l-7.881-36.166,7.881-7.647,9.007-11.9,11.259-10.2,19.14-6.8,23.64,6.8,18.014,5.1,22.517-5.1,4.507,14.444,21.392-9.346h51.79l5.629,9.346,33.776,7.647,27.021-11.9,28.147,4.248,14.636,31.437,20.266,9.346,11.259-16.993h61.923l11.259,31.437h21.392l9.007-31.437,47.287-8.5,22.518-15.294,49.539,7.647,10.133,23.79,63.05,5.1,73.182-5.1,40.532,9.346,7.881,14.444,31.525,16.143,33.776-16.143,16.888-14.444,40.532,6.8s10.133,15.294,9.007,23.79,33.776,33.986,33.776,33.986,42.784.85,42.784-5.948v-62.874l52.916-36.535,19.14-4.248,6.755,4.248v131.695H2375Z" transform="translate(-2375 1397.01)"/><path class="h" d="M-1751.058-518.253v2.93l3.255,4.232,4.232,5.209,7.162-3.255,2.6-6.185,4.883-5.86,7.162-2.93s2.93-3.906,2.6-5.209.977-5.534,2.279-6.511,5.534,0,5.534,0l5.209-7.487,4.883-2.93h3.581s6.185,4.883,8.138,4.883h6.836s1.953-1.3,5.209,0,10.743,1.953,11.719,1.628a10.369,10.369,0,0,1,3.255,0h4.883l6.185-1.628,5.534,1.628h4.883l4.6,2.7-1.022-2.7-1.645-7.613s-2.262,1.428-1.936,1.1-4.883,0-4.883,0l-5.534,1.891a50.408,50.408,0,0,0-5.323,1.038c-2.7.7-1.734,1.038-6.549,0s-2.889-1.038-6.742-1.038-2.119-1.471-5.008-1.891-2.577-2.333-6.7-2.333-4.455-.977-5.63-.977-.808-.847-2.137-.847a34.014,34.014,0,0,1-4.6-.5c-1.156-.193-2.252-1.541-3.534-1.734s-2.8-.771-3.581-.771a12.488,12.488,0,0,0-2.163-.455c-.855,0-1.838.455-2.72.455-1.293,0-.908-.193-3.412.771s-4.238.963-5.971,1.734-3.423.578-3.638,1.348-2.49.963-2.6,1.541-2.233,1.769-2.233,1.769a28.285,28.285,0,0,1-4.928,4.883c-2.2,1.439-2.776,1.824-2.776,2.4s-.553.77-2.107,1.926-3.365,4.527-3.943,5.105-1.414.577-2.426,1.829,0,2.5-1.156,3.082l-3.082,1.541a6.533,6.533,0,0,1-2.119,4.3A14.213,14.213,0,0,1-1751.058-518.253Z" transform="translate(2082 1169)"/><path class="h" d="M-1262.974-522.094s6.5,2.407,9.039,2.407,6.348-3.809,9.31-2.962,5.925,0,11,0,4.232-.846,10.58,0a90.905,90.905,0,0,1,14.812,2.962c4.232,1.27,3.386,6.771,6.348,8.041s2.963-2.116,8.464,5.078,7.618,8.041,9.734,8.887,9.734,2.116,16.082,2.962,5.925.423,14.389,3.809,4.232-1.27,13.542,0,10.157-3.809,18.2,0,8.887.846,21.583,0,15.235,0,26.238,0,8.041-2.116,16.928-3.809,19.467,3.809,22.853,3.809,9.31-.846,14.812,0,8.087-.933,8.087-.933-4.278-1.606-8.087-2.876-10.157-1.693-11.849-2.962-5.078-1.27-8.464-2.539-10.157,1.27-12.273,0-14.389,0-14.389,0-8.464.846-11,0-.423-1.27-5.078,0a118.2,118.2,0,0,1-13.965,2.539c-5.5.846-17.774,1.27-20.313,0s-21.16,2.116-23.276,0a15.124,15.124,0,0,0-9.734-4.655c-4.655-.423-15.658,2.116-18.2,2.116s-16.5,1.27-19.044-2.116-.846-19.044-10.58-22.429-11.849-2.539-15.235-2.962-5.5-3.386-10.58-3.386-11.426.423-13.119,0-8.887-2.539-10.58-2.539-5.5,0-7.194,2.539S-1262.974-522.094-1262.974-522.094Z" transform="translate(2082 1169)"/><path class="i" d="M2375-760.684h72.361l22.518,23.79,18.014,50.979L2504-678.326l19.923-34.778,18.014-6.8V-745.39l14.636-15.294,13.022-14.444,19.629-6.8,5.629-9.346,29.273-4.248,17.214,4.248,3.052,9.346,19.14,11.895v24.64l16.888,8.5,12.468,27.67H2714.2l-7.881-36.166,7.881-7.647,9.007-11.9,11.259-10.2,19.14-6.8,23.64,6.8,18.014,5.1,22.517-5.1,4.507,14.444,21.392-9.346h51.79l5.629,9.346,33.776,7.647,27.021-11.9,28.147,4.248,14.636,31.437,20.266,9.346,11.259-16.993h61.923l11.259,31.437h21.392l9.007-31.437s29.521-5.019,47.287-8.5c14.6-8.424,15.887-16.77,21.146-16.093,4.285-.455,1.106-.335,12.212,2.231,3.869.642,9.163-.455,14.645.427,5.22.278,5.007,2.111,8.491,2.923,2.735.637,5.794.614,8.561,1.114a53.3,53.3,0,0,1,7,1.751l3.685,1.8s2.1,1.22,4.069,6.692c2.945,10.975,2.262,15.039,5.407,15.472,6.157.482,6.96.75,13.652.964,8.257-.364,16.543-2.57,22.271-2.2,3.719.28,7.174,2.677,9.369,4.818,8.619,1.285,16.811-1.017,21.308-.482a46.007,46.007,0,0,0,5.46.964c7.249-.418,23.662-1.032,33.62-4.03.768.155,2.091,1.123,4.245,1.172,7.7.178,23.279-1.383,23.279-1.383l4.821,1.129a21.469,21.469,0,0,1,6.552-.293c.672.12,1.148.361,2.625.745,2.359.641,4.063.859,5.694,1.456l1.9,1.028,10.5,2.323,8.491,3.006,7.831,14.4,31.525,16.143,33.776-16.143,16.888-14.444,40.532,6.8s10.133,15.294,9.007,23.79,33.776,33.986,33.776,33.986,42.784.85,42.784-5.948v-62.874l52.916-36.535,19.14-4.248,6.755,4.248v131.695H2375Z" transform="translate(-2375 1397.01)"/></g><g transform="translate(0 -266)"><g transform="matrix(0.883, -0.469, 0.469, 0.883, 115.98, 339.359)"><path class="j" d="M-1682.492,387.794a99.573,99.573,0,0,1,12.618-22.313c1.619-2.072,4.847-9.208,10.085-13.3a23.56,23.56,0,0,1,6.752-3.549c1.391-.465,4.147-.457,4.682-.889,11.947-3.584,11.264-9.216,11.264-9.216s-2.255,2.214-7.509,4.1c-2.275.815-4.733,2.907-8.078,4.1-10.821,3.845-25.387,8.159-29.814,13.825C-1690.413,370.686-1682.492,387.794-1682.492,387.794Z" transform="translate(2083.016 220.639)"/><path class="j" d="M31.682,40.554s.789-13.188-7.131-23.326S0,0,0,0,23.762,3.168,31.682,13.307,31.682,40.554,31.682,40.554Z" transform="translate(448.929 591.207) rotate(107)"/><path class="j" d="M31.682,0s1.055,12.963-6.865,23.1S0,40.554,0,40.554s22.389-2.571,30.309-12.709S31.682,0,31.682,0Z" transform="translate(462.789 527.72) rotate(8)"/><path class="j" d="M-1685.013,383.731s.113,3.358,3.328-3.993c1.639-3.751,5.616-17.883,8.157-21.137,6.779-8.676,17.695-14.262,17.695-14.262s-20.458,1.986-26.681,11.835S-1685.013,383.731-1685.013,383.731Z" transform="translate(2144.454 170.9)"/><path class="j" d="M31.55,39.469s-.4,2.69-3.618-4.661c-1.639-3.751-7.7-17.292-10.237-20.545C10.916,5.586,0,0,0,0S20.458,1.986,26.681,11.835,31.55,39.469,31.55,39.469Z" transform="translate(515.765 552.65) rotate(107)"/><path class="j" d="M29.18.765s-.113-3.358-3.328,3.993C24.213,8.51,20.237,22.642,17.695,25.9,10.916,34.572,0,40.158,0,40.158s20.458-1.986,26.681-11.835S29.18.765,29.18.765Z" transform="translate(399.543 572.39) rotate(8)"/><path class="j" d="M-1653.568,346.108s.01-.146-1.313,3.736a55.562,55.562,0,0,1-9.051,15.944c-11.093,13.824-22.319,16.9-22.319,16.9s24.121-1.852,32.041-11.99S-1653.568,346.108-1653.568,346.108Z" transform="translate(2112.892 186.932)"/><path class="j" d="M2.108,0S2.1-.145,3.421,3.737a55.565,55.565,0,0,0,9.051,15.944c11.093,13.823,22.319,16.9,22.319,16.9s-22.736-2.6-30.656-12.736S2.108,0,2.108,0Z" transform="translate(490.791 573.445) rotate(107)"/><path class="j" d="M3.053,36.582s-.01.146,1.313-3.736A55.564,55.564,0,0,1,13.417,16.9C24.51,3.079,35.736,0,35.736,0S11.615,1.852,3.695,11.99,3.053,36.582,3.053,36.582Z" transform="translate(427.512 561.954) rotate(8)"/></g><g transform="matrix(0.883, -0.469, 0.469, 0.883, 93.417, 360.869)"><path class="k" d="M-1683.274,376.848a77.448,77.448,0,0,1,9.815-17.355c1.259-1.612,3.77-7.162,7.844-10.343a18.325,18.325,0,0,1,5.251-2.76c1.082-.362,3.226-.355,3.642-.691,9.292-2.788,8.761-7.168,8.761-7.168a17.024,17.024,0,0,1-5.84,3.186c-1.769.634-3.681,2.261-6.283,3.186-8.416,2.99-19.746,6.346-23.189,10.753C-1689.435,363.541-1683.274,376.848-1683.274,376.848Z" transform="translate(2082.339 210.878)"/><path class="k" d="M24.642,31.542S25.256,21.285,19.1,13.4,0,0,0,0,18.482,2.464,24.642,10.35,24.642,31.542,24.642,31.542Z" transform="translate(436.713 574.326) rotate(107)"/><path class="k" d="M24.643,0s.821,10.083-5.34,17.969S0,31.543,0,31.543s17.414-2,23.574-9.885S24.643,0,24.643,0Z" transform="translate(447.494 524.946) rotate(8)"/><path class="k" d="M-1685.259,374.978s.088,2.612,2.588-3.106c1.275-2.917,4.368-13.91,6.345-16.44,5.272-6.748,13.763-11.093,13.763-11.093s-15.912,1.545-20.752,9.205S-1685.259,374.978-1685.259,374.978Z" transform="translate(2130.148 170.9)"/><path class="k" d="M24.539,30.7s-.313,2.092-2.814-3.625c-1.275-2.917-5.985-13.449-7.962-15.98C8.491,4.345,0,0,0,0S15.912,1.545,20.752,9.205,24.539,30.7,24.539,30.7Z" transform="translate(488.698 544.337) rotate(107)"/><path class="k" d="M22.7.6S22.609-2.016,20.108,3.7c-1.275,2.917-4.368,13.91-6.345,16.44C8.491,26.89,0,31.235,0,31.235S15.912,29.69,20.752,22.03,22.7.6,22.7.6Z" transform="translate(398.301 559.691) rotate(8)"/><path class="k" d="M-1660.831,346.108s.008-.114-1.021,2.906a43.214,43.214,0,0,1-7.04,12.4c-8.628,10.752-17.36,13.146-17.36,13.146s18.761-1.44,24.921-9.326S-1660.831,346.108-1660.831,346.108Z" transform="translate(2105.629 182.977)"/><path class="k" d="M1.64,0S1.632-.113,2.661,2.907a43.218,43.218,0,0,0,7.04,12.4c8.628,10.752,17.36,13.146,17.36,13.146S9.377,26.434,3.216,18.549,1.64,0,1.64,0Z" transform="translate(469.274 560.511) rotate(107)"/><path class="k" d="M2.375,28.454s-.008.114,1.021-2.906a43.217,43.217,0,0,1,7.04-12.4C19.064,2.395,27.8,0,27.8,0S9.034,1.44,2.874,9.326,2.375,28.454,2.375,28.454Z" transform="translate(420.055 551.573) rotate(8)"/></g></g><g transform="translate(743.055 -201.977)"><g transform="translate(488.091 581.404)"><path class="b" d="M36.57,27.773S34.745,19.6,27.9,19.6,26.992,8.772,19.011,7.822,16.5.792,5.33.032,3.278,12.383,8.066,13.713s4.333,8.361,9.349,9.311S22.2,32.334,31.1,33.094s10.261,2.66,10.261,2.66Z" transform="matrix(0.777, 0.629, -0.629, 0.777, 22.501, 33.082)"/><path class="b" d="M61.733,45.456s-3.439-12.98-14.749-13.329S44.916,15,31.672,13.091,27.161,1.874,8.649.105,5.9,19.48,13.882,21.823s7.6,13.408,15.939,15.163,8.4,14.93,23.141,16.582,17.1,4.72,17.1,4.72Z" transform="matrix(0.391, 0.921, -0.921, 0.391, 63.712, 0)"/><path class="b" d="M-1682.938-614.234c2.523-2.832,5.059-7.08,11.357-6.018s2.045-13.451,10.06-12.389-.245-21.416,10.06-22.213,5.317-9.2,17.831-9.994c3.066-.2,7.1,11.92,0,15.127-9.406,4.248,6.134,15.4-7.688,19.912s-2.208,23.186-15.949,22.036-3.272,10.708-13.577,8.5S-1682.938-614.234-1682.938-614.234Z" transform="translate(1714.318 699.785)"/></g><g transform="translate(442.403 588.79)"><path class="l" d="M18.33,13.921s-.914-4.1-4.343-4.1S13.53,4.4,9.529,3.921,8.272.4,2.672.016,1.643,6.207,4.043,6.873s2.172,4.191,4.686,4.667,2.4,4.667,6.858,5.048,5.143,1.333,5.143,1.333Z" transform="translate(11.278 27.974) rotate(39)"/><path class="l" d="M39.949,26.373S37.2,19.455,30.232,18.72,28.122,9.712,19.889,8.072,16.567,2.019,5.1.192s-.743,9.94,4.279,11.549,5.325,7.344,10.538,8.665,5.893,8.174,15.034,9.756S45.7,33.453,45.7,33.453Z" transform="matrix(0.391, 0.921, -0.921, 0.391, 31.642, 0)"/><path class="l" d="M-1682.938-639.479c1.265-1.419,2.536-3.549,5.693-3.016s1.025-6.742,5.042-6.21-.123-10.735,5.043-11.134,2.665-4.61,8.938-5.01c1.536-.1,3.56,5.975,0,7.582-4.715,2.129,3.074,7.718-3.854,9.981s-1.107,11.622-7.995,11.045-1.64,5.367-6.806,4.258S-1682.938-639.479-1682.938-639.479Z" transform="translate(1698.492 693.754)"/></g><g transform="translate(447.787 547.332)"><path class="b" d="M36.57,27.773S34.745,19.6,27.9,19.6,26.992,8.772,19.011,7.822,16.5.792,5.33.032,3.278,12.383,8.066,13.713s4.333,8.361,9.349,9.311S22.2,32.334,31.1,33.094s10.261,2.66,10.261,2.66Z" transform="matrix(0.777, 0.629, -0.629, 0.777, 22.501, 55.818)"/><path class="b" d="M79.677,52.689S74.209,38.848,60.3,37.4,56.116,19.368,39.686,16.11,33.073,4,10.195.378,8.682,20.28,18.7,23.486,29.311,38.173,39.714,40.8,51.454,57.15,69.7,60.289,91.13,66.847,91.13,66.847Z" transform="matrix(0.391, 0.921, -0.921, 0.391, 63.359, 0)"/><path class="b" d="M-1682.938-614.234c2.523-2.832,5.059-7.08,11.357-6.018s2.045-13.451,10.06-12.389-.245-21.416,10.06-22.213,5.317-9.2,17.831-9.994c3.066-.2,7.1,11.92,0,15.127-9.406,4.248,6.134,15.4-7.688,19.912s-2.208,23.186-15.949,22.036-3.272,10.708-13.577,8.5S-1682.938-614.234-1682.938-614.234Z" transform="translate(1714.318 722.521)"/></g><g transform="translate(483.966 620.277)"><path class="l" d="M18.33,13.921s-.914-4.1-4.343-4.1S13.53,4.4,9.529,3.921,8.272.4,2.672.016,1.643,6.207,4.043,6.873s2.172,4.191,4.686,4.667,2.4,4.667,6.858,5.048,5.143,1.333,5.143,1.333Z" transform="translate(11.278 27.974) rotate(39)"/><path class="l" d="M39.949,26.373S37.2,19.455,30.232,18.72,28.122,9.712,19.889,8.072,16.567,2.019,5.1.192s-.743,9.94,4.279,11.549,5.325,7.344,10.538,8.665,5.893,8.174,15.034,9.756S45.7,33.453,45.7,33.453Z" transform="matrix(0.391, 0.921, -0.921, 0.391, 31.642, 0)"/><path class="l" d="M-1682.938-639.479c1.265-1.419,2.536-3.549,5.693-3.016s1.025-6.742,5.042-6.21-.123-10.735,5.043-11.134,2.665-4.61,8.938-5.01c1.536-.1,3.56,5.975,0,7.582-4.715,2.129,3.074,7.718-3.854,9.981s-1.107,11.622-7.995,11.045-1.64,5.367-6.806,4.258S-1682.938-639.479-1682.938-639.479Z" transform="translate(1698.492 693.754)"/></g><g transform="translate(504.889 619.653) rotate(8)"><path class="l" d="M18.33,13.921s-.914-4.1-4.343-4.1S13.53,4.4,9.529,3.921,8.272.4,2.672.016,1.643,6.207,4.043,6.873s2.172,4.191,4.686,4.667,2.4,4.667,6.858,5.048,5.143,1.333,5.143,1.333Z" transform="translate(11.278 27.974) rotate(39)"/><path class="l" d="M39.949,26.373S37.2,19.455,30.232,18.72,28.122,9.712,19.889,8.072,16.567,2.019,5.1.192s-.743,9.94,4.279,11.549,5.325,7.344,10.538,8.665,5.893,8.174,15.034,9.756S45.7,33.453,45.7,33.453Z" transform="matrix(0.391, 0.921, -0.921, 0.391, 31.642, 0)"/><path class="l" d="M0,25.371c1.265-1.419,2.536-3.549,5.693-3.016s1.025-6.742,5.042-6.21S10.612,5.41,15.778,5.011,18.443.4,24.716,0c1.536-.1,3.56,5.975,0,7.582C20,9.713,27.79,15.3,20.862,17.564s-1.107,11.622-7.995,11.045-1.64,5.367-6.806,4.258S0,25.371,0,25.371Z" transform="translate(15.554 28.903)"/></g><g transform="translate(456.257 600.423)"><path class="l" d="M18.33,13.921s-.914-4.1-4.343-4.1S13.53,4.4,9.529,3.921,8.272.4,2.672.016,1.643,6.207,4.043,6.873s2.172,4.191,4.686,4.667,2.4,4.667,6.858,5.048,5.143,1.333,5.143,1.333Z" transform="translate(11.278 27.974) rotate(39)"/><path class="l" d="M39.949,26.373S37.2,19.455,30.232,18.72,28.122,9.712,19.889,8.072,16.567,2.019,5.1.192s-.743,9.94,4.279,11.549,5.325,7.344,10.538,8.665,5.893,8.174,15.034,9.756S45.7,33.453,45.7,33.453Z" transform="matrix(0.391, 0.921, -0.921, 0.391, 31.642, 0)"/><path class="l" d="M-1682.938-639.479c1.265-1.419,2.536-3.549,5.693-3.016s1.025-6.742,5.042-6.21-.123-10.735,5.043-11.134,2.665-4.61,8.938-5.01c1.536-.1,3.56,5.975,0,7.582-4.715,2.129,3.074,7.718-3.854,9.981s-1.107,11.622-7.995,11.045-1.64,5.367-6.806,4.258S-1682.938-639.479-1682.938-639.479Z" transform="translate(1698.492 693.754)"/></g><g transform="translate(460.242 624.162) rotate(-20)"><path class="l" d="M18.33,13.921s-.914-4.1-4.343-4.1S13.53,4.4,9.529,3.921,8.272.4,2.672.016,1.643,6.207,4.043,6.873s2.172,4.191,4.686,4.667,2.4,4.667,6.858,5.048,5.143,1.333,5.143,1.333Z" transform="translate(12.6 33.976) rotate(39)"/><path class="l" d="M44.68,28.3s-3.283-7.145-10.935-8.17S31.077,10.886,22.006,8.89,18.13,2.6,5.518.287,5.1,10.366,10.659,12.2s6.118,7.681,11.873,9.232,6.772,8.548,16.835,10.521S51.25,35.73,51.25,35.73Z" transform="matrix(0.391, 0.921, -0.921, 0.391, 32.89, 0)"/><path class="l" d="M0,25.371c1.265-1.419,2.536-3.549,5.693-3.016s1.025-6.742,5.042-6.21S10.612,5.41,15.778,5.011,18.443.4,24.716,0c1.536-.1,3.56,5.975,0,7.582C20,9.713,27.79,15.3,20.862,17.564s-1.107,11.622-7.995,11.045-1.64,5.367-6.806,4.258S0,25.371,0,25.371Z" transform="translate(16.876 34.904)"/></g></g><g transform="translate(0 -266)"><path class="m" d="M12.208,144.554c-11.639-6.013,3.219-18.1,4.367-27.95.524-4.491-2.764-4.571-7-2.493-4.47,2.192-10.053,6.673-9.541,0,.941-12.267,14.235-3.856,18.646-10.575.947-1.443,3.17-4.345,1.807-5.526-1.009-.9-5.786,0-8.277,0-5.815,3.18-11.429,2.535-9.592-1.988,3.359-8.269,13.8-1.63,19.422-8.15S.43,86.878,5.242,79.5s14.807,1.808,18.923-3.1c8.406-9.8-24.73-2.644-18.923-12.186S23.805,68.29,27.98,60.935,6.79,62.031,6.79,50.3,27.1,53.1,31.142,46.226c.089-.151-21.885-2.385-14.566-7.19s11.251,2.3,16.575-3.743c.854-.97-.92-5.116,2.909-12.639,4.757-9.346,4.956-23.877,4.956-23.877s-.4,23.947.98,35.1,15.064,13.658,14.151,18.21-19.847-5.963-17.8,0,24.7,1.737,17.8,12.126-20.156-6.7-17.8,1.357S54.8,66.583,56.146,76.4s-17.469-4.109-17.8,3.1,12.12,1.551,14.961,11.112S33.148,82.863,34.7,92.941s10.431-1,18.607,14.73-23.775-9.3-20.155,0,14.787,7.434,13.2,13.795-18.626-9.138-18.367-2.678,9.145,9.632,10.365,11.364c2.141,3.04,1.488,4.329,0,5.772s-2.936,1.911-5.836.941-3.682-2.635-5.763-4.822C18.486,123.363,25.675,150.288,12.208,144.554Z" transform="matrix(-0.891, 0.454, -0.454, -0.891, 1040.314, 663.197)"/><path class="n" d="M-1199.415,254.5c10.956,5.242-3.03,15.782-4.111,24.367-.493,3.915,2.6,3.985,6.59,2.174,4.208-1.911,9.463-5.818,8.981,0-.885,10.695-13.4,3.362-17.552,9.219-.892,1.258-2.984,3.788-1.7,4.818.95.783,5.446,0,7.792,0,5.474-2.773,10.759-2.211,9.029,1.733-3.162,7.209-12.988,1.421-18.282,7.105s20.341.867,15.811,7.3-11.936-1.577-15.811,2.7c-7.913,8.544,21.276,2.305,15.811,10.624s-14.93-3.813-18.859,2.6,17.4-.693,17.4,9.531-13.6-3.4-17.4,2.6,8.757,3.709,8.19,7.223-8.7-1.9-13.711,3.367c-.8.846-3.176,7.184-6.78,13.743-4.478,8.148-10.338,16.922-10.338,16.922s8.2-19.812,6.9-29.539-14.18-11.907-13.321-15.876,18.682,5.2,16.757,0-23.248-1.515-16.757-10.572,18.973,5.846,16.757-1.183-15.493-.879-16.757-9.44,16.443,3.583,16.757-2.7-11.409-1.352-14.083-9.687,18.974,6.759,17.515-2.027-9.819.873-17.515-12.842,22.38,8.111,18.972,0-13.919-6.481-12.422-12.027,17.532,7.967,17.289,2.335-8.608-8.4-9.756-9.908c-2.016-2.65-1.4-3.774,0-5.033s2.764-1.666,5.494-.82,3.466,2.3,5.425,4.2C-1205.324,272.976-1212.092,249.5-1199.415,254.5Z" transform="translate(2239 301.632)"/><path class="o" d="M-1234.465,254.352c-7.182,4.133,1.986,12.443,2.7,19.212.323,3.087-1.705,3.142-4.321,1.714-2.759-1.507-6.2-4.587-5.888,0,.58,8.432,8.784,2.65,11.507,7.269.584.992,1.956,2.987,1.115,3.8-.623.618-3.571,0-5.108,0-3.589-2.186-7.053-1.743-5.919,1.366,2.073,5.684,8.515,1.12,11.985,5.6s-13.335.683-10.365,5.752,7.825-1.243,10.365,2.132c5.188,6.736-13.948,1.818-10.365,8.376s9.788-3.006,12.364,2.05-11.408-.547-11.408,7.515,8.915-2.678,11.408,2.05-5.741,2.924-5.369,5.7,5.7-1.5,8.989,2.655c.527.667,2.082,5.664,4.445,10.835,2.936,6.424,4.938,15.884,4.938,15.884s-3.536-18.162-2.686-25.831,9.3-9.388,8.733-12.517-12.248,4.1-10.986,0,15.241-1.194,10.986-8.335-12.438,4.609-10.986-.933,10.156-.693,10.986-7.443-10.78,2.825-10.986-2.132,7.479-1.066,9.233-7.638-12.439,5.329-11.483-1.6,6.437.688,11.483-10.125-14.672,6.395-12.438,0,9.125-5.11,8.144-9.482-11.494,6.281-11.334,1.841,5.643-6.621,6.4-7.812c1.321-2.09.918-2.976,0-3.968s-1.812-1.314-3.6-.647-2.272,1.811-3.557,3.315C-1230.592,268.918-1226.155,250.41-1234.465,254.352Z" transform="translate(2218 327.444)"/><path class="p" d="M-1224.226,254.215c4.573,3.115-1.265,9.378-1.716,14.479-.206,2.326,1.086,2.368,2.751,1.292,1.756-1.135,3.95-3.457,3.749,0-.37,6.355-5.592,2-7.326,5.478-.372.747-1.245,2.251-.71,2.863.4.465,2.273,0,3.252,0,2.285-1.648,4.49-1.314,3.768,1.03-1.32,4.284-5.421.844-7.63,4.222s8.49.515,6.6,4.335-4.982-.937-6.6,1.606c-3.3,5.077,8.88,1.37,6.6,6.313s-6.231-2.266-7.871,1.545,7.263-.412,7.263,5.664-5.676-2.019-7.263,1.545,3.655,2.2,3.418,4.292-3.631-1.132-5.723,2c-.335.5-1.325,4.269-2.83,8.166a79.9,79.9,0,0,0-3.144,11.971s2.251-13.688,1.71-19.468-5.918-7.075-5.56-9.434,7.8,3.089,6.994,0-9.7-.9-6.994-6.282,7.919,3.473,6.994-.7-6.466-.522-6.994-5.61,6.863,2.129,6.994-1.606-4.762-.8-5.878-5.756,7.92,4.016,7.31-1.2-4.1.519-7.31-7.631,9.341,4.82,7.919,0-5.809-3.851-5.185-7.146,7.318,4.734,7.216,1.387-3.593-4.99-4.072-5.887c-.841-1.575-.585-2.243,0-2.99a1.612,1.612,0,0,1,2.293-.487c1.139.5,1.447,1.365,2.264,2.5C-1226.692,265.193-1229.516,251.244-1224.226,254.215Z" transform="translate(2266.3 906.662) rotate(25)"/></g><g transform="translate(0 -266)"><g transform="translate(561.818 643.565) rotate(150)"><line class="q" y1="6" x2="3" transform="translate(36.559 71.503) rotate(160)"/><line class="q" y1="6" x2="3" transform="translate(34.653 70.368) rotate(160)"/><line class="q" x1="3" y1="6" transform="translate(36.559 73.503) rotate(160)"/><line class="q" x1="4" y1="7" transform="translate(37.754 70.94) rotate(160)"/><line class="q" x1="4" y1="6" transform="translate(37.668 67.779) rotate(160)"/><line class="q" y1="6" x2="4" transform="translate(33.567 68.207) rotate(160)"/><line class="q" x2="6.384" y2="1.806" transform="translate(30.831 62.69)"/><line class="q" x1="3.556" y2="6.148" transform="translate(28.214 61.348)"/><line class="q" x1="5" y1="4" transform="translate(37.153 61.517) rotate(160)"/><line class="q" y1="4" x2="5" transform="translate(31.515 63.569) rotate(160)"/><line class="q" x1="6" y1="4" transform="translate(37.067 58.356) rotate(160)"/><line class="q" y1="4" x2="6" transform="translate(30.489 60.75) rotate(160)"/><line class="q" x1="7" y1="4" transform="translate(36.98 55.195) rotate(160)"/><line class="q" y1="4" x2="7" transform="translate(29.463 57.931) rotate(160)"/><line class="q" x1="7" y1="4" transform="translate(35.954 52.376) rotate(160)"/><line class="q" y1="4" x2="7" transform="translate(28.437 55.112) rotate(160)"/><line class="q" x1="9" y1="4" transform="translate(35.868 49.215) rotate(160)"/><line class="q" y1="4" x2="9" transform="translate(28.35 51.951) rotate(160)"/><line class="q" x1="10" y1="4" transform="translate(35.781 46.053) rotate(160)"/><line class="q" y1="4" x2="10" transform="translate(27.324 49.132) rotate(160)"/><line class="q" x1="10" y1="4" transform="translate(34.755 43.234) rotate(160)"/><line class="q" x1="10.5" y1="4" transform="translate(33.729 40.415) rotate(160)"/><line class="q" y1="3.877" x2="10.401" transform="matrix(-0.799, 0.602, -0.602, -0.799, 24.613, 43.743)"/><line class="q" x1="10.5" y1="4" transform="translate(32.703 37.596) rotate(160)"/><line class="q" x1="7.755" y2="11.126" transform="translate(14.46 36.496)"/><line class="q" x2="12.463" y2="0.281" transform="translate(19.215 34.496)"/><line class="q" x1="7.602" y2="10.745" transform="translate(12.613 34.496)"/><line class="q" x2="13.467" y2="0.928" transform="translate(17.215 31.496)"/><line class="q" y1="3.877" x2="10.401" transform="matrix(-0.799, 0.602, -0.602, -0.799, 19.917, 35.982)"/><line class="q" x1="10.676" y1="4.064" transform="matrix(-0.966, 0.259, -0.259, -0.966, 28.857, 29.795)"/><line class="q" y1="3.877" x2="10.401" transform="matrix(-0.799, 0.602, -0.602, -0.799, 18.914, 32.983)"/><line class="q" x1="10.676" y1="4.064" transform="matrix(-0.966, 0.259, -0.259, -0.966, 26.919, 27.156)"/><line class="q" y1="3.877" x2="10.401" transform="matrix(-0.799, 0.602, -0.602, -0.799, 17.911, 29.984)"/><line class="q" x1="10.676" y1="4.064" transform="matrix(-0.966, 0.259, -0.259, -0.966, 25.037, 24.522)"/><line class="q" y1="3.877" x2="10.401" transform="matrix(-0.799, 0.602, -0.602, -0.799, 16.387, 26.984)"/><line class="q" x1="10.676" y1="4.064" transform="matrix(-0.966, 0.259, -0.259, -0.966, 23.156, 21.888)"/><line class="q" y1="3.454" x2="10.962" transform="matrix(-0.799, 0.602, -0.602, -0.799, 15.375, 23.648)"/><line class="q" x1="10.676" y1="4.064" transform="matrix(-0.966, 0.259, -0.259, -0.966, 21.275, 19.254)"/><line class="q" y1="3.877" x2="10.401" transform="matrix(-0.799, 0.602, -0.602, -0.799, 14.12, 20.986)"/><line class="q" x1="10.676" y1="4.064" transform="matrix(-0.966, 0.259, -0.259, -0.966, 19.336, 16.615)"/><line class="q" y1="3.877" x2="10.401" transform="matrix(-0.799, 0.602, -0.602, -0.799, 12.646, 17.987)"/><line class="q" x1="10.676" y1="4.064" transform="matrix(-0.966, 0.259, -0.259, -0.966, 17.512, 13.986)"/><line class="q" y1="3.877" x2="10.401" transform="matrix(-0.799, 0.602, -0.602, -0.799, 11.643, 14.988)"/><line class="q" y1="0.974" x2="12.887" transform="translate(2.328 11.496)"/><line class="q" y1="3.877" x2="10.401" transform="matrix(-0.799, 0.602, -0.602, -0.799, 10.64, 11.989)"/><line class="q" y1="0.155" x2="11.913" transform="translate(1.302 9.496)"/><line class="q" x2="11" y2="1" transform="translate(0.215 6.496)"/><line class="q" y1="2" x2="1" transform="translate(0.215 2.496)"/><line class="q" x1="6.884" y2="9.754" transform="translate(2.33 5.496)"/><line class="q" x1="4" y2="7" transform="translate(3.215 4.496)"/><line class="q" x1="4" y2="7" transform="translate(1.215 3.496)"/><line class="q" x1="3" y2="6" transform="translate(0.215 2.496)"/><line class="q" y1="4" x2="10" transform="translate(26.298 46.313) rotate(160)"/><path class="r" d="M29.381,64.263A187.048,187.048,0,0,1,11.975,33.97,273.785,273.785,0,0,1,0,0" transform="matrix(-0.999, 0.035, -0.035, -0.999, 32.139, 64.224)"/></g><g transform="translate(522.076 581.924) rotate(-29)"><line class="s" x2="2.188" y2="4.456" transform="translate(19.766 6.417) rotate(-160)"/><line class="s" x2="2.188" y2="4.456" transform="translate(18.444 7.258) rotate(-160)"/><line class="s" x1="2.007" y2="4.366" transform="translate(19.696 4.862) rotate(-160)"/><line class="s" x1="2.691" y2="5.086" transform="translate(20.279 7.438) rotate(-160)"/><line class="s" x1="2.706" y2="4.351" transform="translate(20.47 9.088) rotate(-160)"/><line class="s" x2="2.887" y2="4.472" transform="translate(17.691 8.859) rotate(-160)"/><line class="s" y1="1.338" x2="4.428" transform="translate(17.216 7.432)"/><line class="s" x1="2.466" y1="4.554" transform="translate(16.131 5.21)"/><line class="s" x1="3.435" y2="2.865" transform="translate(20.621 12.496) rotate(-160)"/><line class="s" x2="3.556" y2="3.016" transform="translate(17.562 10.902) rotate(-160)"/><line class="s" x1="4.134" y2="2.85" transform="translate(20.567 14.866) rotate(-160)"/><line class="s" x2="4.255" y2="3.031" transform="translate(17.015 13.163) rotate(-160)"/><line class="s" x1="4.833" y2="2.835" transform="translate(20.512 17.236) rotate(-160)"/><line class="s" x2="4.954" y2="3.047" transform="translate(16.478 15.289) rotate(-160)"/><line class="s" x1="4.833" y2="2.835" transform="translate(19.8 19.366) rotate(-160)"/><line class="s" x2="4.954" y2="3.047" transform="translate(15.91 17.419) rotate(-160)"/><line class="s" x1="6.232" y2="2.805" transform="translate(19.751 21.719) rotate(-160)"/><line class="s" x2="6.353" y2="3.077" transform="translate(15.95 19.8) rotate(-160)"/><line class="s" x1="6.931" y2="2.789" transform="translate(19.696 24.09) rotate(-160)"/><line class="s" x2="7.052" y2="3.092" transform="translate(15.446 21.927) rotate(-160)"/><line class="s" x1="6.931" y2="2.789" transform="translate(18.984 26.22) rotate(-160)"/><line class="s" x1="7.28" y2="2.782" transform="translate(18.275 28.342) rotate(-160)"/><line class="s" x2="7.479" y2="3.041" transform="matrix(-0.799, -0.602, 0.602, -0.799, 13.305, 25.478)"/><line class="s" x1="7.28" y2="2.782" transform="translate(17.833 30.473) rotate(-160)"/><line class="s" x1="5.379" y1="8.241" transform="translate(8.02 20.361)"/><line class="s" y1="0.208" x2="8.644" transform="translate(10.161 29.986)"/><line class="s" x1="5.272" y1="7.958" transform="translate(7.005 22.159)"/><line class="s" y1="0.687" x2="9.341" transform="translate(8.986 31.767)"/><line class="s" x2="7.479" y2="3.041" transform="matrix(-0.799, -0.602, 0.602, -0.799, 10.77, 31.347)"/><line class="s" x1="7.391" y2="2.872" transform="matrix(-0.966, -0.259, 0.259, -0.966, 16.509, 36.535)"/><line class="s" x2="7.479" y2="3.041" transform="matrix(-0.799, -0.602, 0.602, -0.799, 10.228, 33.615)"/><line class="s" x1="7.391" y2="2.872" transform="matrix(-0.966, -0.259, 0.259, -0.966, 15.471, 38.529)"/><line class="s" x2="7.479" y2="3.041" transform="matrix(-0.799, -0.602, 0.602, -0.799, 9.687, 35.883)"/><line class="s" x1="7.391" y2="2.872" transform="matrix(-0.966, -0.259, 0.259, -0.966, 14.463, 40.52)"/><line class="s" x2="7.479" y2="3.041" transform="matrix(-0.799, -0.602, 0.602, -0.799, 9.116, 38.152)"/><line class="s" x1="7.391" y2="2.872" transform="matrix(-0.966, -0.259, 0.259, -0.966, 13.455, 42.51)"/><line class="s" x2="7.869" y2="2.748" transform="matrix(-0.799, -0.602, 0.602, -0.799, 9.223, 40.419)"/><line class="s" x1="7.391" y2="2.872" transform="matrix(-0.966, -0.259, 0.259, -0.966, 12.448, 44.5)"/><line class="s" x2="7.479" y2="3.041" transform="matrix(-0.799, -0.602, 0.602, -0.799, 8.175, 42.688)"/><line class="s" x1="7.391" y2="2.872" transform="matrix(-0.966, -0.259, 0.259, -0.966, 11.409, 46.494)"/><line class="s" x2="7.479" y2="3.041" transform="matrix(-0.799, -0.602, 0.602, -0.799, 7.153, 44.956)"/><line class="s" x1="7.391" y2="2.872" transform="matrix(-0.966, -0.259, 0.259, -0.966, 10.432, 48.629)"/><line class="s" x2="7.479" y2="3.041" transform="matrix(-0.799, -0.602, 0.602, -0.799, 6.457, 47.224)"/><line class="s" x2="8.938" y2="0.722" transform="translate(1.615 46.978)"/><line class="s" x2="7.479" y2="3.041" transform="matrix(-0.799, -0.602, 0.602, -0.799, 5.762, 49.628)"/><line class="s" x2="8.263" y2="0.115" transform="translate(0.903 49.066)"/><line class="s" y1="0.741" x2="7.63" transform="translate(0.149 50.662)"/><line class="s" x2="0.694" y2="1.481" transform="translate(0.149 52.884)"/><line class="s" x1="4.775" y1="7.225" transform="translate(1.616 44.919)"/><line class="s" x1="2.774" y1="5.185" transform="translate(2.23 47.699)"/><line class="s" x1="2.774" y1="5.185" transform="translate(0.842 48.44)"/><line class="s" x1="2.081" y1="4.444" transform="translate(0.149 49.921)"/><line class="s" x2="7.052" y2="3.092" transform="translate(14.893 24.057) rotate(-160)"/><path class="t" d="M17.369.041A150.367,150.367,0,0,0,7.1,22.85,242.772,242.772,0,0,0,.107,48.468" transform="matrix(-0.999, -0.035, 0.035, -0.999, 17.726, 56.088)"/></g><g transform="translate(96 70)"><line class="u" y1="6" x2="3" transform="translate(425.156 498.492) rotate(-20)"/><line class="u" y1="6" x2="3" transform="translate(427.061 499.628) rotate(-20)"/><line class="u" x1="3" y1="6" transform="translate(425.156 496.492) rotate(-20)"/><line class="u" x1="4" y1="7" transform="translate(423.96 499.056) rotate(-20)"/><line class="u" x1="4" y1="6" transform="translate(424.047 502.217) rotate(-20)"/><line class="u" y1="6" x2="4" transform="translate(428.148 501.789) rotate(-20)"/><line class="u" x1="6.384" y1="1.806" transform="translate(424.5 505.5)"/><line class="u" y1="6.148" x2="3.556" transform="translate(428.768 502.5)"/><line class="u" x1="5" y1="4" transform="translate(424.562 508.479) rotate(-20)"/><line class="u" y1="4" x2="5" transform="translate(428.877 506.427) rotate(-20)"/><line class="u" x1="6" y1="4" transform="translate(424.648 511.64) rotate(-20)"/><line class="u" y1="4" x2="6" transform="translate(429.638 509.246) rotate(-20)"/><line class="u" x1="7" y1="4" transform="translate(424.734 514.801) rotate(-20)"/><line class="u" y1="4" x2="7" transform="translate(430.383 512.065) rotate(-20)"/><line class="u" x1="7" y1="4" transform="translate(425.76 517.62) rotate(-20)"/><line class="u" y1="4" x2="7" transform="translate(431.178 514.884) rotate(-20)"/><line class="u" x1="9" y1="4" transform="translate(425.847 520.781) rotate(-20)"/><line class="u" y1="4" x2="9" transform="translate(431.102 518.045) rotate(-20)"/><line class="u" x1="10" y1="4" transform="translate(425.933 523.942) rotate(-20)"/><line class="u" y1="4" x2="10" transform="translate(431.794 520.864) rotate(-20)"/><line class="u" x1="10" y1="4" transform="translate(426.959 526.761) rotate(-20)"/><line class="u" x1="10.5" y1="4" transform="translate(427.985 529.581) rotate(-20)"/><line class="u" y1="3.877" x2="10.401" transform="translate(433.845 526.253) rotate(-37)"/><line class="u" x1="10.5" y1="4" transform="translate(429.011 532.4) rotate(-20)"/><line class="u" y1="11.126" x2="7.755" transform="translate(436.02 522.374)"/><line class="u" x1="12.463" y1="0.281" transform="translate(428.423 535.219)"/><line class="u" y1="10.745" x2="7.602" transform="translate(437.592 524.755)"/><line class="u" x1="13.467" y1="0.928" transform="translate(429.077 537.572)"/><line class="u" y1="3.877" x2="10.401" transform="translate(437.377 534.014) rotate(-37)"/><line class="u" x1="10.676" y1="4.064" transform="matrix(0.966, -0.259, 0.259, 0.966, 430.592, 540.201)"/><line class="u" y1="3.877" x2="10.401" transform="translate(438.132 537.013) rotate(-37)"/><line class="u" x1="10.676" y1="4.064" transform="matrix(0.966, -0.259, 0.259, 0.966, 432.037, 542.84)"/><line class="u" y1="3.877" x2="10.401" transform="translate(438.886 540.012) rotate(-37)"/><line class="u" x1="10.676" y1="4.064" transform="matrix(0.966, -0.259, 0.259, 0.966, 433.44, 545.474)"/><line class="u" y1="3.877" x2="10.401" transform="translate(440.033 543.011) rotate(-37)"/><line class="u" x1="10.676" y1="4.064" transform="matrix(0.966, -0.259, 0.259, 0.966, 434.842, 548.108)"/><line class="u" y1="3.454" x2="10.962" transform="translate(439.62 546.348) rotate(-37)"/><line class="u" x1="10.676" y1="4.064" transform="matrix(0.966, -0.259, 0.259, 0.966, 436.244, 550.742)"/><line class="u" y1="3.877" x2="10.401" transform="translate(440.875 549.009) rotate(-37)"/><line class="u" x1="10.676" y1="4.064" transform="matrix(0.966, -0.259, 0.259, 0.966, 437.689, 553.381)"/><line class="u" y1="3.877" x2="10.401" transform="translate(442.349 552.008) rotate(-37)"/><line class="u" x1="10.676" y1="4.064" transform="matrix(0.966, -0.259, 0.259, 0.966, 439.049, 556.01)"/><line class="u" y1="3.877" x2="10.401" transform="translate(443.352 555.008) rotate(-37)"/><line class="u" x1="12.887" y2="0.974" transform="translate(439.781 557.526)"/><line class="u" y1="3.877" x2="10.401" transform="translate(444.355 558.007) rotate(-37)"/><line class="u" x1="11.913" y2="0.155" transform="translate(441.781 560.345)"/><line class="u" x1="11" y1="1" transform="translate(443.781 562.5)"/><line class="u" x1="1" y2="2" transform="translate(453.781 565.5)"/><line class="u" y1="9.754" x2="6.884" transform="translate(445.781 554.746)"/><line class="u" y1="7" x2="4" transform="translate(447.781 558.5)"/><line class="u" y1="7" x2="4" transform="translate(449.781 559.5)"/><line class="u" y1="6" x2="3" transform="translate(451.781 561.5)"/><line class="u" y1="4" x2="10" transform="translate(432.564 523.683) rotate(-20)"/><path class="v" d="M22.666,64.029A199.315,199.315,0,0,1,9.18,33.872,322.545,322.545,0,0,1,0,0" transform="matrix(0.999, -0.035, 0.035, 0.999, 429.576, 505.772)"/></g><g transform="translate(559.96 569.466)"><line class="q" x2="3" y2="6" transform="translate(34.507 8.664) rotate(-160)"/><line class="q" x2="3" y2="6" transform="translate(32.601 9.799) rotate(-160)"/><line class="q" x1="3" y2="6" transform="translate(34.507 6.664) rotate(-160)"/><line class="q" x1="4" y2="7" transform="translate(35.36 10.167) rotate(-160)"/><line class="q" x1="4" y2="6" transform="translate(35.616 12.389) rotate(-160)"/><line class="q" x2="4" y2="6" transform="translate(31.515 11.96) rotate(-160)"/><line class="q" y1="1.806" x2="6.384" transform="translate(30.831 10.034)"/><line class="q" x1="3.556" y1="6.148" transform="translate(28.214 7.034)"/><line class="q" x1="5" y2="4" transform="translate(35.785 16.771) rotate(-160)"/><line class="q" x2="5" y2="4" transform="translate(30.147 14.719) rotate(-160)"/><line class="q" x1="6" y2="4" transform="translate(35.698 19.932) rotate(-160)"/><line class="q" x2="6" y2="4" transform="translate(29.121 17.538) rotate(-160)"/><line class="q" x1="7" y2="4" transform="translate(35.612 23.093) rotate(-160)"/><line class="q" x2="7" y2="4" transform="translate(28.095 20.357) rotate(-160)"/><line class="q" x1="7" y2="4" transform="translate(34.586 25.912) rotate(-160)"/><line class="q" x2="7" y2="4" transform="translate(27.069 23.176) rotate(-160)"/><line class="q" x1="9" y2="4" transform="translate(34.5 29.074) rotate(-160)"/><line class="q" x2="9" y2="4" transform="translate(26.982 26.337) rotate(-160)"/><line class="q" x1="10" y2="4" transform="translate(34.413 32.235) rotate(-160)"/><line class="q" x2="10" y2="4" transform="translate(25.956 29.157) rotate(-160)"/><line class="q" x1="10" y2="4" transform="translate(33.387 35.054) rotate(-160)"/><line class="q" x1="10.5" y2="4" transform="translate(32.361 37.873) rotate(-160)"/><line class="q" x2="10.401" y2="3.877" transform="matrix(-0.799, -0.602, 0.602, -0.799, 22.28, 33.883)"/><line class="q" x1="10.5" y2="4" transform="translate(31.335 40.692) rotate(-160)"/><line class="q" x1="7.755" y1="11.126" transform="translate(14.46 26.908)"/><line class="q" y1="0.281" x2="12.463" transform="translate(19.214 39.752)"/><line class="q" x1="7.602" y1="10.745" transform="translate(12.613 29.289)"/><line class="q" y1="0.928" x2="13.467" transform="translate(17.214 42.106)"/><line class="q" x2="10.401" y2="3.877" transform="matrix(-0.799, -0.602, 0.602, -0.799, 17.583, 41.644)"/><line class="q" x1="10.676" y2="4.064" transform="matrix(-0.966, -0.259, 0.259, -0.966, 27.805, 48.66)"/><line class="q" x2="10.401" y2="3.877" transform="matrix(-0.799, -0.602, 0.602, -0.799, 16.58, 44.643)"/><line class="q" x1="10.676" y2="4.064" transform="matrix(-0.966, -0.259, 0.259, -0.966, 25.867, 51.299)"/><line class="q" x2="10.401" y2="3.877" transform="matrix(-0.799, -0.602, 0.602, -0.799, 15.577, 47.642)"/><line class="q" x1="10.676" y2="4.064" transform="matrix(-0.966, -0.259, 0.259, -0.966, 23.985, 53.933)"/><line class="q" x2="10.401" y2="3.877" transform="matrix(-0.799, -0.602, 0.602, -0.799, 14.053, 50.641)"/><line class="q" x1="10.676" y2="4.064" transform="matrix(-0.966, -0.259, 0.259, -0.966, 22.104, 56.567)"/><line class="q" x2="10.962" y2="3.454" transform="matrix(-0.799, -0.602, 0.602, -0.799, 13.296, 53.64)"/><line class="q" x1="10.676" y2="4.064" transform="matrix(-0.966, -0.259, 0.259, -0.966, 20.223, 59.201)"/><line class="q" x2="10.401" y2="3.877" transform="matrix(-0.799, -0.602, 0.602, -0.799, 11.787, 56.64)"/><line class="q" x1="10.676" y2="4.064" transform="matrix(-0.966, -0.259, 0.259, -0.966, 18.284, 61.84)"/><line class="q" x2="10.401" y2="3.877" transform="matrix(-0.799, -0.602, 0.602, -0.799, 10.313, 59.639)"/><line class="q" x1="10.676" y2="4.064" transform="matrix(-0.966, -0.259, 0.259, -0.966, 16.46, 64.469)"/><line class="q" x2="10.401" y2="3.877" transform="matrix(-0.799, -0.602, 0.602, -0.799, 9.31, 62.638)"/><line class="q" x2="12.887" y2="0.974" transform="translate(2.328 62.059)"/><line class="q" x2="10.401" y2="3.877" transform="matrix(-0.799, -0.602, 0.602, -0.799, 8.307, 65.637)"/><line class="q" x2="11.913" y2="0.155" transform="translate(1.302 64.879)"/><line class="q" y1="1" x2="11" transform="translate(0.215 67.034)"/><line class="q" x2="1" y2="2" transform="translate(0.215 70.034)"/><line class="q" x1="6.884" y1="9.754" transform="translate(2.33 59.28)"/><line class="q" x1="4" y1="7" transform="translate(3.214 63.034)"/><line class="q" x1="4" y1="7" transform="translate(1.214 64.034)"/><line class="q" x1="3" y1="6" transform="translate(0.214 66.034)"/><line class="q" x2="10" y2="4" transform="translate(24.93 31.976) rotate(-160)"/><path class="r" d="M29.381,0A187.048,187.048,0,0,0,11.974,30.294,273.785,273.785,0,0,0,0,64.263" transform="matrix(-0.999, -0.035, 0.035, -0.999, 29.896, 74.529)"/></g><g transform="translate(533.513 570.399) rotate(-16)"><line class="u" x2="3" y2="6" transform="translate(30.208 8.664) rotate(-160)"/><line class="u" x2="3" y2="6" transform="translate(28.303 9.799) rotate(-160)"/><line class="u" x1="3" y2="6" transform="translate(30.208 6.664) rotate(-160)"/><line class="u" x1="4" y2="7" transform="translate(31.061 10.167) rotate(-160)"/><line class="u" x1="4" y2="6" transform="translate(31.317 12.389) rotate(-160)"/><line class="u" x2="4" y2="6" transform="translate(27.216 11.96) rotate(-160)"/><line class="u" y1="1.806" x2="6.384" transform="translate(26.532 10.034)"/><line class="u" x1="3.556" y1="6.148" transform="translate(24.668 7.034)"/><line class="u" x1="5" y2="4" transform="translate(31.486 16.771) rotate(-160)"/><line class="u" x2="5" y2="4" transform="translate(26.694 14.719) rotate(-160)"/><line class="u" x1="6" y2="4" transform="translate(31.4 19.932) rotate(-160)"/><line class="u" x2="6" y2="4" transform="translate(25.838 17.538) rotate(-160)"/><line class="u" x1="7" y2="4" transform="translate(31.313 23.093) rotate(-160)"/><line class="u" x2="7" y2="4" transform="translate(24.992 20.357) rotate(-160)"/><line class="u" x1="7" y2="4" transform="translate(30.287 25.912) rotate(-160)"/><line class="u" x2="7" y2="4" transform="translate(24.114 23.176) rotate(-160)"/><line class="u" x1="9" y2="4" transform="translate(30.201 29.074) rotate(-160)"/><line class="u" x2="9" y2="4" transform="translate(24.131 26.337) rotate(-160)"/><line class="u" x1="10" y2="4" transform="translate(30.115 32.235) rotate(-160)"/><line class="u" x2="10" y2="4" transform="translate(23.319 29.157) rotate(-160)"/><line class="u" x1="10" y2="4" transform="translate(29.089 35.054) rotate(-160)"/><line class="u" x1="10.5" y2="4" transform="translate(28.063 37.873) rotate(-160)"/><line class="u" x2="10.401" y2="3.877" transform="matrix(-0.799, -0.602, 0.602, -0.799, 20.064, 33.883)"/><line class="u" x1="10.5" y2="4" transform="translate(27.037 40.692) rotate(-160)"/><line class="u" x1="7.755" y1="11.126" transform="translate(12.388 26.908)"/><line class="u" y1="0.281" x2="12.463" transform="translate(15.949 39.752)"/><line class="u" x1="7.602" y1="10.745" transform="translate(10.815 29.289)"/><line class="u" y1="0.928" x2="13.467" transform="translate(14.168 42.106)"/><line class="u" x2="10.401" y2="3.877" transform="matrix(-0.799, -0.602, 0.602, -0.799, 16.113, 41.644)"/><line class="u" x1="10.676" y2="4.064" transform="matrix(-0.966, -0.259, 0.259, -0.966, 24.956, 48.66)"/><line class="u" x2="10.401" y2="3.877" transform="matrix(-0.799, -0.602, 0.602, -0.799, 15.269, 44.643)"/><line class="u" x1="10.676" y2="4.064" transform="matrix(-0.966, -0.259, 0.259, -0.966, 23.333, 51.299)"/><line class="u" x2="10.401" y2="3.877" transform="matrix(-0.799, -0.602, 0.602, -0.799, 14.424, 47.642)"/><line class="u" x1="10.676" y2="4.064" transform="matrix(-0.966, -0.259, 0.259, -0.966, 21.758, 53.933)"/><line class="u" x2="10.401" y2="3.877" transform="matrix(-0.799, -0.602, 0.602, -0.799, 13.142, 50.641)"/><line class="u" x1="10.676" y2="4.064" transform="matrix(-0.966, -0.259, 0.259, -0.966, 20.183, 56.567)"/><line class="u" x2="10.962" y2="3.454" transform="matrix(-0.799, -0.602, 0.602, -0.799, 13.296, 53.64)"/><line class="u" x1="10.676" y2="4.064" transform="matrix(-0.966, -0.259, 0.259, -0.966, 18.608, 59.201)"/><line class="u" x2="10.401" y2="3.877" transform="matrix(-0.799, -0.602, 0.602, -0.799, 11.787, 56.64)"/><line class="u" x1="10.676" y2="4.064" transform="matrix(-0.966, -0.259, 0.259, -0.966, 16.986, 61.84)"/><line class="u" x2="10.401" y2="3.877" transform="matrix(-0.799, -0.602, 0.602, -0.799, 10.313, 59.639)"/><line class="u" x1="10.676" y2="4.064" transform="matrix(-0.966, -0.259, 0.259, -0.966, 15.459, 64.469)"/><line class="u" x2="10.401" y2="3.877" transform="matrix(-0.799, -0.602, 0.602, -0.799, 9.31, 62.638)"/><line class="u" x2="12.887" y2="0.974" transform="translate(2.328 62.059)"/><line class="u" x2="10.401" y2="3.877" transform="matrix(-0.799, -0.602, 0.602, -0.799, 8.307, 65.637)"/><line class="u" x2="11.913" y2="0.155" transform="translate(1.302 64.879)"/><line class="u" y1="1" x2="11" transform="translate(0.215 67.034)"/><line class="u" x2="1" y2="2" transform="translate(0.215 70.034)"/><line class="u" x1="6.884" y1="9.754" transform="translate(2.33 59.28)"/><line class="u" x1="4" y1="7" transform="translate(3.214 63.034)"/><line class="u" x1="4" y1="7" transform="translate(1.214 64.034)"/><line class="u" x1="3" y1="6" transform="translate(0.214 66.034)"/><line class="u" x2="10" y2="4" transform="translate(22.456 31.976) rotate(-160)"/><path class="v" d="M25.39.139a193.031,193.031,0,0,0-14.9,30.206A301.524,301.524,0,0,0,.3,64.253" transform="matrix(-0.999, -0.035, 0.035, -0.999, 25.903, 74.529)"/></g></g></g></svg>